<svg version="1.1" id="Layer_1" xmlns="http://www.w3.org/2000/svg" xmlns:xlink="http://www.w3.org/1999/xlink" x="0px" y="0px"
	 width="100%" viewBox="0 0 496 496" enable-background="new 0 0 496 496" xml:space="preserve">
<path fill="#000000" opacity="1.000000" stroke="none" 
	d="
M294.333191,278.946045 
	C297.138641,283.363251 297.177734,287.545013 294.360107,291.414490 
	C291.855591,294.853973 288.399353,296.649506 283.926392,295.681610 
	C279.193542,294.657501 276.186066,291.766174 275.233032,287.100861 
	C274.287933,282.474579 276.408386,278.603241 279.321808,275.271393 
	C288.625214,264.631927 308.612885,262.351990 320.116425,270.519287 
	C324.021881,273.292114 326.242126,277.024261 326.330811,281.883484 
	C326.379333,284.541016 326.339508,287.200134 326.339508,290.932098 
	C330.900116,278.869873 337.285919,269.748322 349.526123,266.591797 
	C361.730835,263.444427 371.588562,268.064423 380.417389,276.999237 
	C380.737000,272.973877 381.776001,269.408325 376.924072,267.507751 
	C386.163422,266.067169 393.811188,262.201996 400.323334,255.086166 
	C401.970612,258.373810 401.188324,261.212982 401.341492,263.883820 
	C401.591827,268.249084 405.605164,265.876740 408.398651,268.183716 
	C400.022034,267.044556 401.347229,272.302490 401.348145,276.705688 
	C401.350891,290.036194 401.338379,303.366669 401.352875,316.697174 
	C401.362427,325.493469 403.437683,327.618408 411.927002,327.613861 
	C404.164215,338.502075 388.751343,335.923523 380.448914,322.347656 
	C360.160828,344.688751 332.818176,332.674530 326.734619,308.521698 
	C325.312531,322.298187 325.678314,324.118378 331.468140,330.270782 
	C324.868225,332.222076 318.287384,332.448547 311.907532,333.691956 
	C308.338318,334.387604 305.988586,333.836395 305.166718,329.697021 
	C298.452911,332.256256 292.247498,335.532532 284.841278,333.520905 
	C277.327789,331.480133 272.708893,326.949066 270.566071,318.478149 
	C262.279846,330.050507 250.768250,335.020508 238.634186,338.900146 
	C236.103226,339.709381 235.311081,341.226532 235.347626,343.716217 
	C235.430801,349.380219 235.324005,355.046753 235.349609,360.712006 
	C235.360138,363.043701 235.033188,365.361877 232.319656,365.692474 
	C225.100250,366.571960 217.871002,366.307007 210.123703,365.755829 
	C217.896729,356.062103 213.714172,345.477997 214.451401,335.560822 
	C214.638733,333.040924 211.988174,333.350952 210.210052,333.343414 
	C202.240479,333.309540 194.270691,333.328674 184.631805,333.328674 
	C192.004852,328.102875 190.607727,321.577209 190.641479,315.440521 
	C190.690048,306.609344 190.841156,297.771301 190.556885,288.948822 
	C190.411728,284.444489 191.937592,280.985565 194.709442,277.611328 
	C198.800064,272.631744 197.753922,270.248444 191.360489,268.938812 
	C186.005142,267.841797 181.196579,269.758881 176.378036,271.580505 
	C175.038773,272.086823 174.138596,273.128540 174.526260,274.707153 
	C178.162857,289.516510 175.545151,304.569092 176.239090,319.493134 
	C176.461349,324.272888 175.650711,329.188019 181.999664,332.944885 
	C170.570923,332.944885 160.882477,332.944885 149.697174,332.944885 
	C156.190002,328.907654 155.019775,323.373779 155.047913,318.186920 
	C155.092209,310.022247 155.123871,301.856445 155.039383,293.692413 
	C154.974472,287.420227 155.532791,281.589996 160.234406,276.575317 
	C163.429459,273.167511 161.984482,270.287537 157.266663,269.151642 
	C156.295364,268.917755 155.319458,268.655731 154.330368,268.550385 
	C145.234268,267.581360 141.229172,271.110687 141.230453,280.052582 
	C141.232437,293.882965 141.314148,307.714111 141.185715,321.543274 
	C141.146851,325.728241 141.448425,329.553528 145.548386,331.997253 
	C142.400162,333.569794 99.884575,334.121613 91.379509,332.699371 
	C97.179855,328.345947 95.875832,322.338196 95.897682,316.677460 
	C95.940788,305.513367 95.853134,294.348572 95.933929,283.184875 
	C95.966949,278.623749 96.184746,274.105408 90.497849,271.144165 
	C96.694458,268.790161 102.343391,268.736053 107.768410,267.783203 
	C111.210602,267.178589 114.642220,266.257904 118.132072,269.133270 
	C120.415672,271.014771 123.883064,268.720154 126.847603,268.529877 
	C131.870728,268.207428 136.795242,265.770081 141.940384,268.373322 
	C142.849640,268.833344 144.480698,267.964386 145.748169,267.602997 
	C154.672058,265.058624 163.438507,264.006744 171.424255,270.287994 
	C173.187729,271.675079 174.476578,270.454437 175.948624,269.718750 
	C181.238770,267.074921 186.839569,265.668823 192.776657,265.687225 
	C204.433762,265.723328 211.127228,272.151581 211.289017,283.914886 
	C211.467728,296.909729 211.338791,309.908722 211.356583,322.905914 
	C211.359955,325.380005 211.131226,327.955231 213.669617,329.655426 
	C215.403580,328.608398 214.607651,326.948914 214.613831,325.633728 
	C214.678864,311.803650 214.614349,297.972992 214.671631,284.142853 
	C214.691772,279.280762 215.185425,274.340546 209.799072,270.827271 
	C218.711716,270.095978 226.736664,265.234589 235.569427,268.631287 
	C236.986771,269.176361 238.165024,268.568787 239.403488,268.153503 
	C257.703339,262.016937 274.710114,278.608765 275.336395,294.217072 
	C275.468842,297.517517 275.355682,300.827789 275.355682,305.093811 
	C286.744232,295.543304 300.920746,294.157166 313.315826,288.474213 
	C313.770111,288.265930 314.229309,288.065735 314.670776,287.832611 
	C318.508148,285.806122 323.372314,283.952148 323.226013,279.036499 
	C323.080017,274.131226 318.529999,271.545593 314.366089,269.756256 
	C309.275879,267.568878 303.935028,266.593109 298.295380,267.954681 
	C290.141052,269.923401 289.374329,271.677002 294.333191,278.946045 
M366.381500,273.873016 
	C367.259033,271.016602 365.875519,269.534851 363.337799,268.560425 
	C357.455414,266.301788 354.062927,267.383392 351.243256,273.450165 
	C345.133148,286.596802 345.059082,299.802856 351.929504,312.769806 
	C354.499634,317.620605 358.136597,321.442932 363.537170,323.164429 
	C370.444061,325.366119 380.198730,321.453583 380.497162,316.004456 
	C380.921478,308.257080 380.605011,300.469116 380.605011,292.063660 
	C379.338470,292.833984 378.667877,293.236725 378.002258,293.647522 
	C374.093506,296.059906 370.091461,296.156464 366.240021,293.711121 
	C362.287109,291.201355 361.214661,287.328888 361.681610,282.843903 
	C362.033752,279.461792 364.718292,277.371735 366.381500,273.873016 
M235.367996,296.499939 
	C235.367996,309.719299 235.367996,322.938660 235.367996,336.582336 
	C239.949203,335.407776 242.463989,332.961975 244.868912,330.477325 
	C256.554443,318.404419 258.562500,289.877655 248.739868,276.171600 
	C246.948181,273.671539 244.689590,271.755981 241.637589,270.955475 
	C237.653366,269.910492 235.470810,271.403442 235.402008,275.504791 
	C235.290222,282.168182 235.369629,288.834747 235.367996,296.499939 
M305.648743,308.507629 
	C305.438599,303.806213 306.117798,299.052612 305.199036,294.291840 
	C293.076447,298.246552 287.924622,313.121246 294.816986,323.283417 
	C295.765961,324.682617 296.935547,325.807678 298.451630,326.589844 
	C302.829102,328.848206 305.514252,327.350983 305.629364,322.436615 
	C305.730286,318.127350 305.648895,313.813843 305.648743,308.507629 
M119.934669,280.835083 
	C119.679680,278.587708 120.458344,275.958252 117.943558,274.323944 
	C117.943558,292.339600 117.943558,310.016052 117.943558,328.910095 
	C119.066399,327.362183 119.575478,326.987610 119.579208,326.608093 
	C119.726265,311.656952 119.827370,296.705353 119.934669,280.835083 
z"/>
<path fill="#000000" opacity="1.000000" stroke="none" 
	d="
M358.803772,223.112122 
	C360.625641,222.171387 362.082092,221.376144 363.538849,220.581467 
	C364.969482,219.801025 365.779022,218.086304 368.873718,217.655426 
	C365.283142,225.221237 359.830933,229.596970 353.039978,232.100281 
	C338.206757,237.568192 326.848969,231.858765 317.759552,220.028687 
	C299.095459,243.987076 271.049805,235.313431 262.297852,210.374847 
	C263.493622,216.857391 259.295258,224.481506 267.746796,230.094360 
	C260.820526,232.165466 254.622818,232.437866 248.574142,233.503937 
	C244.942215,234.144073 241.861954,234.533340 240.747971,229.885712 
	C236.744812,231.062698 233.437164,233.033096 229.658722,233.766190 
	C223.128357,235.033203 217.334900,233.452805 212.359634,229.366440 
	C204.321320,222.764313 204.846237,211.083069 213.353409,203.617889 
	C217.821442,199.697128 223.245911,197.545044 228.803894,195.681656 
	C236.849503,192.984238 245.057358,190.681992 252.579025,186.635895 
	C260.840088,182.192093 261.077087,176.171783 253.100647,171.311508 
	C246.201401,167.107605 238.729370,166.316040 230.987625,168.588486 
	C227.137207,169.718719 226.110443,172.323883 227.991089,175.913696 
	C228.528320,176.939178 229.320892,177.827652 229.948105,178.809784 
	C233.103165,183.750244 233.036194,188.304474 229.666489,192.147781 
	C226.319122,195.965607 222.203964,196.941315 217.477219,195.107697 
	C212.970245,193.359314 210.441528,188.837006 210.861679,183.388550 
	C210.905502,182.820023 211.083176,182.261826 211.324265,181.087570 
	C207.170471,185.350128 202.868256,187.174469 197.810211,184.885086 
	C193.052277,182.731537 190.997711,178.700867 191.365097,173.527191 
	C191.490845,171.756287 191.186996,170.458298 189.172180,170.436752 
	C187.386185,170.417664 185.810074,171.044907 185.483673,173.060318 
	C185.272598,174.363525 185.338104,175.716934 185.336792,177.047897 
	C185.322540,191.377487 185.391174,205.707672 185.273392,220.036331 
	C185.234299,224.794281 185.018021,229.443649 190.023026,232.073242 
	C188.857971,233.891861 187.404694,233.314941 186.184433,233.353058 
	C174.884842,233.705994 163.588791,232.854538 152.266479,234.075058 
	C143.035614,235.070129 135.772476,227.696259 135.697815,218.053986 
	C135.584274,203.392014 135.631042,188.728394 135.692825,174.065811 
	C135.704697,171.248627 135.705460,168.638840 131.884949,167.393280 
	C141.454483,166.559387 148.812134,161.914749 156.023651,154.629242 
	C156.224304,158.921951 155.924683,161.947083 156.602798,164.734329 
	C157.542099,168.595169 161.791214,165.407379 163.803055,167.478226 
	C163.653656,167.776764 163.567322,168.253433 163.365280,168.308945 
	C156.357544,170.233994 156.352600,170.228348 156.350189,178.088867 
	C156.346176,191.252106 156.368469,204.415390 156.329849,217.578522 
	C156.320770,220.668747 156.639420,223.609253 159.100952,225.804291 
	C160.204987,226.788803 161.460678,227.957993 163.080276,227.168701 
	C164.420074,226.515793 164.557037,225.037674 164.570358,223.681671 
	C164.608002,219.849731 164.615997,216.017426 164.618347,212.185257 
	C164.624084,202.854355 164.537918,193.522430 164.653961,184.192978 
	C164.713593,179.398209 164.506104,174.809067 159.762100,171.402863 
	C163.394974,168.877899 167.109787,169.107864 170.565338,168.688614 
	C175.712357,168.064117 180.811188,165.668808 186.153381,168.346497 
	C187.106644,168.824326 188.941757,167.680130 190.318008,167.150574 
	C194.211288,165.652451 198.102692,164.058685 202.380432,164.451523 
	C209.075912,165.066345 212.126389,169.478668 213.462723,176.395996 
	C219.024323,171.254562 224.849884,167.645996 231.819611,166.301437 
	C237.978470,165.113297 244.076416,165.229477 249.996902,167.426590 
	C259.291565,170.875900 262.145081,175.622971 262.428558,188.883865 
	C267.698273,176.892075 274.923553,168.075104 287.542297,166.074265 
	C300.076843,164.086761 309.816223,169.474625 317.376404,179.363785 
	C320.240906,176.653305 322.662933,173.881943 325.540833,171.716431 
	C343.894867,157.905762 365.836884,169.129410 370.894653,189.628571 
	C371.743225,193.067917 369.316864,193.127655 367.084595,193.133926 
	C357.755310,193.160095 348.425323,193.165161 339.096588,193.075653 
	C333.560608,193.022537 332.498413,193.994629 333.479095,199.431671 
	C334.580627,205.538849 336.543243,211.315384 340.510895,216.303101 
	C345.176758,222.168503 350.892303,224.984863 358.803772,223.112122 
M305.808685,195.291000 
	C296.952515,192.649460 294.347137,185.638367 299.361816,177.980042 
	C300.269562,176.593765 301.184082,175.203384 301.965942,173.745422 
	C302.916260,171.973297 302.257385,170.553955 300.737640,169.426788 
	C296.081482,165.973465 291.030579,166.803589 287.760071,171.562180 
	C278.991516,184.320526 280.939484,207.600098 291.695282,218.591110 
	C297.588898,224.613602 305.695496,225.422638 312.566650,220.885513 
	C315.371704,219.033295 316.371765,217.099854 314.789948,213.833786 
	C312.738281,209.597458 311.791931,204.938232 311.921112,200.284073 
	C312.035034,196.180359 310.408630,194.852539 305.808685,195.291000 
M333.300079,187.213943 
	C333.279572,189.268021 333.089233,191.306366 336.238708,191.157166 
	C340.548706,190.952942 344.870117,190.997009 349.186127,190.908554 
	C350.733398,190.876846 352.591705,190.709106 352.344727,188.672806 
	C351.629547,182.776245 351.604309,176.652832 348.387604,171.360367 
	C345.162506,166.053986 340.273804,166.176529 337.182983,171.595535 
	C334.579102,176.160782 333.813171,181.257355 333.300079,187.213943 
M241.016037,210.500168 
	C240.738098,205.317963 241.553818,200.055008 240.374985,194.825180 
	C232.092545,197.308228 226.624725,205.393814 227.652893,213.659760 
	C228.283478,218.729279 228.985565,224.004898 234.462128,226.653610 
	C238.690506,228.698639 240.782532,227.563339 240.959595,222.922836 
	C241.104752,219.118744 241.009460,215.305466 241.016037,210.500168 
z"/>
<path fill="#000000" opacity="1.000000" stroke="none" 
	d="
M96.186005,247.601074 
	C97.683502,242.058121 101.338844,239.362762 106.372879,239.100983 
	C110.592216,238.881592 114.057045,240.993958 116.065361,244.892181 
	C118.156265,248.950699 117.827629,252.900574 115.014420,256.531738 
	C112.187309,260.180817 106.780212,261.509888 102.394676,259.727753 
	C98.120537,257.990875 95.757141,253.607956 96.186005,247.601074 
z"/>
</svg>